<svg xmlns="http://www.w3.org/2000/svg" xmlns:xlink="http://www.w3.org/1999/xlink" width="2000" zoomAndPan="magnify" viewBox="0 0 1500 1499.999933" height="2000" preserveAspectRatio="xMidYMid meet" version="1.0"><defs><g/><clipPath id="57c9627e8d"><path d="M 48.832031 708.832031 L 135.804688 708.832031 L 135.804688 795.800781 L 48.832031 795.800781 Z M 48.832031 708.832031 " clip-rule="nonzero"/></clipPath><clipPath id="7518984ce7"><path d="M 92.316406 708.832031 C 68.300781 708.832031 48.832031 728.300781 48.832031 752.316406 C 48.832031 776.332031 68.300781 795.800781 92.316406 795.800781 C 116.335938 795.800781 135.804688 776.332031 135.804688 752.316406 C 135.804688 728.300781 116.335938 708.832031 92.316406 708.832031 Z M 92.316406 708.832031 " clip-rule="nonzero"/></clipPath><clipPath id="6fb6125fe0"><path d="M 0.832031 0.832031 L 87.804688 0.832031 L 87.804688 87.800781 L 0.832031 87.800781 Z M 0.832031 0.832031 " clip-rule="nonzero"/></clipPath><clipPath id="58fe1cdb82"><path d="M 44.316406 0.832031 C 20.300781 0.832031 0.832031 20.300781 0.832031 44.316406 C 0.832031 68.332031 20.300781 87.800781 44.316406 87.800781 C 68.335938 87.800781 87.804688 68.332031 87.804688 44.316406 C 87.804688 20.300781 68.335938 0.832031 44.316406 0.832031 Z M 44.316406 0.832031 " clip-rule="nonzero"/></clipPath><clipPath id="2ba0307753"><rect x="0" width="88" y="0" height="88"/></clipPath><clipPath id="833253b81b"><rect x="0" width="812" y="0" height="373"/></clipPath></defs><rect x="-150" width="1800" fill="#ffffff" y="-149.999993" height="1799.99992" fill-opacity="1"/><rect x="-150" width="1800" fill="#f4f4f4" y="-149.999993" height="1799.99992" fill-opacity="1"/><g clip-path="url(#57c9627e8d)"><g clip-path="url(#7518984ce7)"><g transform="matrix(1, 0, 0, 1, 48, 708)"><g clip-path="url(#2ba0307753)"><g clip-path="url(#6fb6125fe0)"><g clip-path="url(#58fe1cdb82)"><path fill="#ff751f" d="M 0.832031 0.832031 L 87.804688 0.832031 L 87.804688 87.800781 L 0.832031 87.800781 Z M 0.832031 0.832031 " fill-opacity="1" fill-rule="nonzero"/></g></g></g></g></g></g><g transform="matrix(1, 0, 0, 1, 594, 558)"><g clip-path="url(#833253b81b)"><g fill="#000000" fill-opacity="1"><g transform="translate(0.671174, 300.240028)"><g><path d="M 118.625 6.015625 C 104.101562 6.015625 90.65625 3.144531 78.28125 -2.59375 C 65.914062 -8.332031 55.097656 -16.316406 45.828125 -26.546875 C 36.566406 -36.773438 29.34375 -48.664062 24.15625 -62.21875 C 18.976562 -75.769531 16.390625 -90.285156 16.390625 -105.765625 C 16.390625 -121.253906 18.976562 -135.738281 24.15625 -149.21875 C 29.34375 -162.695312 36.566406 -174.550781 45.828125 -184.78125 C 55.097656 -195.007812 65.914062 -202.992188 78.28125 -208.734375 C 90.65625 -214.472656 104.035156 -217.34375 118.421875 -217.34375 C 131.140625 -217.34375 142.957031 -215.269531 153.875 -211.125 C 164.800781 -206.976562 174.445312 -201.066406 182.8125 -193.390625 C 191.175781 -185.710938 197.707031 -176.625 202.40625 -166.125 L 202.40625 -211.53125 L 236.625 -211.53125 L 236.625 0 L 202.40625 0 L 202.40625 -45 C 197.707031 -34.632812 191.175781 -25.613281 182.8125 -17.9375 C 174.445312 -10.257812 164.800781 -4.347656 153.875 -0.203125 C 142.957031 3.941406 131.207031 6.015625 118.625 6.015625 Z M 126.5 -27.375 C 136.875 -27.375 146.585938 -29.34375 155.640625 -33.28125 C 164.703125 -37.226562 172.617188 -42.757812 179.390625 -49.875 C 186.160156 -57 191.484375 -65.328125 195.359375 -74.859375 C 199.234375 -84.398438 201.171875 -94.703125 201.171875 -105.765625 C 201.171875 -116.691406 199.234375 -126.890625 195.359375 -136.359375 C 191.484375 -145.828125 186.125 -154.117188 179.28125 -161.234375 C 172.4375 -168.359375 164.519531 -173.925781 155.53125 -177.9375 C 146.550781 -181.945312 136.945312 -183.953125 126.71875 -183.953125 C 116.34375 -183.953125 106.660156 -182.050781 97.671875 -178.25 C 88.691406 -174.445312 80.742188 -169.019531 73.828125 -161.96875 C 66.921875 -154.914062 61.53125 -146.65625 57.65625 -137.1875 C 53.78125 -127.71875 51.84375 -117.242188 51.84375 -105.765625 C 51.84375 -94.015625 53.8125 -83.332031 57.75 -73.71875 C 61.695312 -64.113281 67.09375 -55.851562 73.9375 -48.9375 C 80.78125 -42.03125 88.726562 -36.707031 97.78125 -32.96875 C 106.84375 -29.238281 116.414062 -27.375 126.5 -27.375 Z M 126.5 -27.375 "/></g></g></g><g fill="#000000" fill-opacity="1"><g transform="translate(246.841714, 300.240028)"><g><path d="M 69.890625 0 L 34.21875 0 L 34.21875 -211.53125 L 68.4375 -211.53125 L 68.4375 -170.6875 C 72.445312 -179.8125 78.285156 -187.894531 85.953125 -194.9375 C 93.628906 -201.988281 102.648438 -207.519531 113.015625 -211.53125 C 123.390625 -215.539062 134.523438 -217.546875 146.421875 -217.546875 C 174.484375 -217.546875 195.769531 -208.867188 210.28125 -191.515625 C 224.800781 -174.171875 232.0625 -148.5625 232.0625 -114.6875 L 232.0625 0 L 196.390625 0 L 196.390625 -114.0625 C 196.390625 -138.394531 191.132812 -156.160156 180.625 -167.359375 C 170.125 -178.554688 155.679688 -184.15625 137.296875 -184.15625 C 128.441406 -184.15625 119.96875 -182.492188 111.875 -179.171875 C 103.789062 -175.859375 96.601562 -171.019531 90.3125 -164.65625 C 84.019531 -158.300781 79.039062 -150.628906 75.375 -141.640625 C 71.71875 -132.660156 69.890625 -122.5 69.890625 -111.15625 Z M 69.890625 0 "/></g></g></g><g fill="#000000" fill-opacity="1"><g transform="translate(485.962176, 300.240028)"><g><path d="M 120.5 6.015625 C 105.5625 6.015625 91.765625 3.144531 79.109375 -2.59375 C 66.460938 -8.332031 55.4375 -16.316406 46.03125 -26.546875 C 36.632812 -36.773438 29.34375 -48.664062 24.15625 -62.21875 C 18.976562 -75.769531 16.390625 -90.285156 16.390625 -105.765625 C 16.390625 -121.253906 18.945312 -135.738281 24.0625 -149.21875 C 29.175781 -162.695312 36.398438 -174.550781 45.734375 -184.78125 C 55.066406 -195.007812 66.09375 -203.023438 78.8125 -208.828125 C 91.53125 -214.640625 105.492188 -217.546875 120.703125 -217.546875 C 133.972656 -217.546875 145.929688 -215.09375 156.578125 -210.1875 C 167.222656 -205.28125 176.378906 -198.988281 184.046875 -191.3125 C 191.722656 -183.644531 197.566406 -175.523438 201.578125 -166.953125 L 200.75 -187.484375 L 200.75 -292 L 236.421875 -292 L 236.421875 0 L 202.203125 0 L 202.203125 -45 C 197.773438 -35.457031 191.585938 -26.847656 183.640625 -19.171875 C 175.691406 -11.503906 166.394531 -5.390625 155.75 -0.828125 C 145.101562 3.730469 133.351562 6.015625 120.5 6.015625 Z M 126.296875 -27.171875 C 136.671875 -27.171875 146.382812 -29.175781 155.4375 -33.1875 C 164.488281 -37.195312 172.4375 -42.757812 179.28125 -49.875 C 186.125 -57 191.484375 -65.328125 195.359375 -74.859375 C 199.234375 -84.398438 201.171875 -94.703125 201.171875 -105.765625 C 201.171875 -116.828125 199.234375 -127.09375 195.359375 -136.5625 C 191.484375 -146.03125 186.125 -154.328125 179.28125 -161.453125 C 172.4375 -168.578125 164.488281 -174.140625 155.4375 -178.140625 C 146.382812 -182.148438 136.671875 -184.15625 126.296875 -184.15625 C 115.929688 -184.15625 106.21875 -182.1875 97.15625 -178.25 C 88.101562 -174.3125 80.1875 -168.816406 73.40625 -161.765625 C 66.632812 -154.710938 61.347656 -146.414062 57.546875 -136.875 C 53.742188 -127.332031 51.84375 -116.960938 51.84375 -105.765625 C 51.84375 -94.703125 53.707031 -84.398438 57.4375 -74.859375 C 61.175781 -65.328125 66.394531 -57 73.09375 -49.875 C 79.800781 -42.757812 87.679688 -37.195312 96.734375 -33.1875 C 105.796875 -29.175781 115.648438 -27.171875 126.296875 -27.171875 Z M 126.296875 -27.171875 "/></g></g></g><g fill="#000000" fill-opacity="1"><g transform="translate(731.925365, 300.240028)"><g><path d="M 51.84375 -252.8125 C 44.519531 -252.8125 38.679688 -255.019531 34.328125 -259.4375 C 29.972656 -263.863281 27.796875 -269.257812 27.796875 -275.625 C 27.796875 -281.84375 29.972656 -287.164062 34.328125 -291.59375 C 38.679688 -296.019531 44.59375 -298.234375 52.0625 -298.234375 C 59.664062 -298.234375 65.644531 -296.019531 70 -291.59375 C 74.351562 -287.164062 76.53125 -281.84375 76.53125 -275.625 C 76.53125 -269.257812 74.351562 -263.863281 70 -259.4375 C 65.644531 -255.019531 59.59375 -252.8125 51.84375 -252.8125 Z M 69.890625 0 L 34.21875 0 L 34.21875 -211.53125 L 69.890625 -211.53125 Z M 69.890625 0 "/></g></g></g></g></g><path stroke-linecap="butt" transform="matrix(0, 0.75, -0.75, 0, 244.574323, 561.37078)" fill="none" stroke-linejoin="miter" d="M 18.182712 145.03661 C 180.396268 -13.676945 342.609823 -13.676945 504.823379 145.03661 " stroke="#ff751f" stroke-width="52" stroke-opacity="1" stroke-miterlimit="4"/><path stroke-linecap="butt" transform="matrix(0.0334964, 0.749252, -0.749252, 0.0334964, 355.254173, 482.52769)" fill="none" stroke-linejoin="miter" d="M 16.383179 163.786134 C 242.772407 -19.926853 469.159951 -19.930542 695.545348 163.785472 " stroke="#ff751f" stroke-width="52" stroke-opacity="1" stroke-miterlimit="4"/><path stroke-linecap="butt" transform="matrix(0.0385469, 0.749009, -0.749009, 0.0385469, 478.707496, 408.947609)" fill="none" stroke-linejoin="miter" d="M 14.901819 178.257326 C 305.104644 -24.752019 595.305994 -24.753537 885.510805 178.258241 " stroke="#ff751f" stroke-width="52" stroke-opacity="1" stroke-miterlimit="4"/></svg>