<svg xmlns="http://www.w3.org/2000/svg" version="1.1" xmlns:xlink="http://www.w3.org/1999/xlink" width="1000" height="1000"><metadata><rdf:RDF xmlns:rdf="http://www.w3.org/1999/02/22-rdf-syntax-ns#" xmlns:dc="http://purl.org/dc/elements/1.1/"><rdf:Description><dc:creator>RealFaviconGenerator</dc:creator><dc:source>https://realfavicongenerator.net</dc:source></rdf:Description></rdf:RDF></metadata><g clip-path="url(#SvgjsClipPath1199)"><rect width="1000" height="1000" fill="#ff751f"></rect><g transform="matrix(0.5,0,0,0.5,0,0)"><svg xmlns="http://www.w3.org/2000/svg" version="1" xmlns:xlink="http://www.w3.org/1999/xlink" width="2000" zoomAndPan="magnify" viewBox="0 0 1500 1499.999933" height="2000" preserveAspectRatio="xMidYMid meet"><defs><clipPath id="561a57a26e"><path d="M 268.519531 664.636719 L 448.847656 664.636719 L 448.847656 844.964844 L 268.519531 844.964844 Z M 268.519531 664.636719 " clip-rule="nonzero"></path></clipPath><clipPath id="ee53f6a522"><path d="M 358.683594 664.636719 C 308.890625 664.636719 268.519531 705.003906 268.519531 754.800781 C 268.519531 804.597656 308.890625 844.964844 358.683594 844.964844 C 408.480469 844.964844 448.847656 804.597656 448.847656 754.800781 C 448.847656 705.003906 408.480469 664.636719 358.683594 664.636719 Z M 358.683594 664.636719 " clip-rule="nonzero"></path></clipPath><clipPath id="1b5062fd48"><path d="M 0.519531 0.636719 L 180.847656 0.636719 L 180.847656 180.964844 L 0.519531 180.964844 Z M 0.519531 0.636719 " clip-rule="nonzero"></path></clipPath><clipPath id="4b3014cbee"><path d="M 90.683594 0.636719 C 40.890625 0.636719 0.519531 41.003906 0.519531 90.800781 C 0.519531 140.597656 40.890625 180.964844 90.683594 180.964844 C 140.480469 180.964844 180.847656 140.597656 180.847656 90.800781 C 180.847656 41.003906 140.480469 0.636719 90.683594 0.636719 Z M 90.683594 0.636719 " clip-rule="nonzero"></path></clipPath><clipPath id="e3a462cc4c"><rect x="0" width="181" y="0" height="181"></rect></clipPath><clipPath id="SvgjsClipPath1199"><rect width="1000" height="1000" x="0" y="0" rx="200" ry="200"></rect></clipPath></defs><rect x="-150" width="1800" fill="#ffffff" y="-149.999993" height="1799.99992" fill-opacity="1"></rect><rect x="-150" width="1800" fill="#ff751f" y="-149.999993" height="1799.99992" fill-opacity="1"></rect><g clip-path="url(#561a57a26e)"><g clip-path="url(#ee53f6a522)"><g transform="matrix(1, 0, 0, 1, 268, 664)"><g clip-path="url(#e3a462cc4c)"><g clip-path="url(#1b5062fd48)"><g clip-path="url(#4b3014cbee)"><path fill="#f4f4f4" d="M 0.519531 0.636719 L 180.847656 0.636719 L 180.847656 180.964844 L 0.519531 180.964844 Z M 0.519531 0.636719 " fill-opacity="1" fill-rule="nonzero"></path></g></g></g></g></g></g><path stroke-linecap="butt" transform="matrix(0, 0.75, -0.75, 0, 674.079527, 359.112196)" fill="none" stroke-linejoin="miter" d="M 37.418117 300.309187 C 373.746271 -28.768966 710.079633 -28.768966 1046.412995 300.309187 " stroke="#f4f4f4" stroke-width="107" stroke-opacity="1" stroke-miterlimit="4"></path><path stroke-linecap="butt" transform="matrix(0.0334964, 0.749252, -0.749252, 0.0334964, 903.565204, 195.625847)" fill="none" stroke-linejoin="miter" d="M 33.711935 339.186274 C 503.10426 -41.729906 972.494545 -41.729585 1441.887993 339.187467 " stroke="#f4f4f4" stroke-width="107" stroke-opacity="1" stroke-miterlimit="4"></path><path stroke-linecap="butt" transform="matrix(0.0385469, 0.749009, -0.749009, 0.0385469, 1159.524773, 43.04545)" fill="none" stroke-linejoin="miter" d="M 30.666505 369.190879 C 632.371527 -51.731976 1234.072897 -51.728882 1835.781555 369.190294 " stroke="#f4f4f4" stroke-width="107" stroke-opacity="1" stroke-miterlimit="4"></path></svg></g></g></svg>